<svg xmlns="http://www.w3.org/2000/svg" xmlns:xlink="http://www.w3.org/1999/xlink" xmlns:svgjs="http://svgjs.com/svgjs" version="1.1" width="1900" height="900" preserveAspectRatio="none" viewBox="0 0 1900 900"><g mask="url(&quot;#SvgjsMask1056&quot;)" fill="none"><rect width="1900" height="900" x="0" y="0" fill="rgba(16, 80, 147, 1)"/><path d="M0,699.651C130.386,725.884,269.534,663.476,371.556,578.152C468.624,496.972,500.219,366.867,541.102,247.113C578.256,138.281,618.52,27.185,598.299,-86.022C578.412,-197.359,503.633,-286.756,430.356,-372.906C356.468,-459.775,274.507,-536.228,172.314,-586.846C54.459,-645.221,-72.181,-710.454,-201.372,-685.81C-334.127,-660.486,-442.111,-561.561,-523.972,-454.025C-602.769,-350.514,-666.347,-223.058,-652.072,-93.754C-638.598,28.291,-519.984,104.366,-451.104,206.012C-395.597,287.924,-353.222,372.718,-286.473,445.761C-198.619,541.899,-127.676,673.964,0,699.651" fill="#0a3460"/><path d="M1900 1621.458C2064.534 1617.4279999999999 2255.934 1756.106 2382.827 1651.2930000000001 2514.192 1542.786 2414.4030000000002 1320.333 2462.462 1156.868 2500.98 1025.855 2641.119 930.766 2634.767 794.356 2628.304 655.557 2527.552 539.591 2429.151 441.488 2335.582 348.203 2208.127 311.56399999999996 2090.382 251.61900000000003 1942.43 176.29499999999996 1809.53 2.9529999999999745 1648.7 44.14999999999998 1489.112 85.029 1464.578 305.28200000000004 1365.899 437.199 1276.182 557.135 1129.576 638.519 1095.0639999999999 784.268 1059.548 934.256 1128.104 1083.8600000000001 1178.2640000000001 1229.606 1233.4679999999998 1390.008 1252.6480000000001 1594.385 1401.729 1675.325 1551.58 1756.683 1729.539 1625.633 1900 1621.458" fill="#166cc6"/></g><defs><mask id="SvgjsMask1056"><rect width="1900" height="900" fill="#ffffff"/></mask></defs></svg>